<svg xmlns="http://www.w3.org/2000/svg" width="128" height="128" viewBox="0 0 128 128" role="img" aria-labelledby="title desc">
  <title id="title">Dynatrace IME Enter Fix logo</title>
  <desc id="desc">Blue and green rounded-square icon with a protected Enter key symbol.</desc>
  <defs>
    <linearGradient id="bg" x1="16" y1="12" x2="112" y2="116" gradientUnits="userSpaceOnUse">
      <stop offset="0" stop-color="#0b5fff"/>
      <stop offset="1" stop-color="#27c98b"/>
    </linearGradient>
    <linearGradient id="shield" x1="46" y1="36" x2="82" y2="93" gradientUnits="userSpaceOnUse">
      <stop offset="0" stop-color="#ffffff" stop-opacity="0.98"/>
      <stop offset="1" stop-color="#dcf8ee" stop-opacity="0.96"/>
    </linearGradient>
    <filter id="softShadow" x="-20%" y="-20%" width="140%" height="140%">
      <feDropShadow dx="0" dy="3" stdDeviation="3" flood-color="#002766" flood-opacity="0.35"/>
    </filter>
  </defs>

  <rect x="8" y="8" width="112" height="112" rx="26" fill="url(#bg)"/>
  <circle cx="103" cy="26" r="8" fill="#ffffff" fill-opacity="0.22"/>
  <circle cx="24" cy="103" r="11" fill="#ffffff" fill-opacity="0.12"/>

  <path filter="url(#softShadow)" fill="url(#shield)" d="M64 26l24 9v20c0 18-10.5 31.5-24 38-13.5-6.5-24-20-24-38V35l24-9z"/>

  <path fill="#0d4ee6" d="M47 50c0-3.9 3.1-7 7-7h20v6H54c-.6 0-1 .4-1 1v9h19v-4l10 8-10 8v-4H54c-3.9 0-7-3.1-7-7V50z"/>
  <rect x="52" y="74" width="24" height="4" rx="2" fill="#0d4ee6" fill-opacity="0.85"/>
</svg>
